<svg width="322" height="40" viewBox="0 0 322 40" fill="none" xmlns="http://www.w3.org/2000/svg">
<path d="M36.5862 31.6636H30.1504L34.1758 6.77344H40.6113L36.5862 31.6636Z" fill="#151515"/>
<path d="M59.917 7.37998C58.6476 6.87637 56.6342 6.32031 54.1446 6.32031C47.789 6.32031 43.3135 9.70943 43.286 14.5549C43.2332 18.1298 46.4904 20.1154 48.9265 21.3074C51.4164 22.5254 52.2628 23.3205 52.2628 24.4062C52.2375 26.0736 50.2508 26.8423 48.3979 26.8423C45.8284 26.8423 44.4516 26.446 42.3594 25.5183L41.5119 25.1206L40.6113 30.7079C42.1208 31.3956 44.9017 32.0058 47.789 32.0326C54.5419 32.0326 58.9383 28.6959 58.9904 23.5323C59.016 20.6989 57.2961 18.5278 53.5882 16.7537C51.3372 15.6149 49.9587 14.847 49.9587 13.6817C49.9851 12.6224 51.1246 11.5374 53.6656 11.5374C55.7578 11.4842 57.2951 11.9871 58.4596 12.4904L59.0417 12.7547L59.917 7.37998Z" fill="#151515"/>
<path fill-rule="evenodd" clip-rule="evenodd" d="M71.437 6.77344H76.4151L81.6072 31.6632H75.6483C75.6483 31.6632 75.0651 28.8034 74.8803 27.9296H66.6173C66.3783 28.5912 65.2666 31.6632 65.2666 31.6632H58.5137L68.0732 8.83858C68.7356 7.22321 69.9019 6.77344 71.437 6.77344ZM71.0404 15.8818C71.0404 15.8818 69.0009 21.416 68.4709 22.8459H73.8203C73.5557 21.6015 72.3369 15.6436 72.3369 15.6436L71.8871 13.4989C71.6977 14.0512 71.4238 14.8105 71.2391 15.3226C71.1138 15.6697 71.0296 15.9033 71.0404 15.8818Z" fill="#151515"/>
<path d="M24.7752 6.77344L18.4724 23.7461L17.7837 20.3039C16.6184 16.332 12.9639 12.0165 8.88574 9.8708L14.6589 31.6372H21.4646L31.5805 6.77344H24.7752V6.77344Z" fill="#151515"/>
<path d="M12.6197 6.77344H2.26511L2.15918 7.27635C10.2364 9.34185 15.5858 14.3207 17.7836 20.3049L15.5327 8.86568C15.1621 7.276 14.0232 6.82588 12.6197 6.77344Z" fill="#151515"/>
<path opacity="0.01" fill-rule="evenodd" clip-rule="evenodd" d="M0 0H86V40H0V0Z" fill="white"/>
<circle cx="155" cy="19" r="17" fill="#393939"/>
<circle cx="133" cy="19" r="17" fill="#151515"/>
<path fill-rule="evenodd" clip-rule="evenodd" d="M144 31.9239C147.671 28.8056 150 24.1558 150 18.9619C150 13.7681 147.671 9.11827 144 6C140.329 9.11827 138 13.7681 138 18.9619C138 24.1558 140.329 28.8056 144 31.9239Z" fill="#636363"/>
<rect opacity="0.01" x="114" width="60" height="40" fill="white"/>
<path fill-rule="evenodd" clip-rule="evenodd" d="M247.739 12.0938H241.562C241.139 12.0935 240.779 12.4008 240.713 12.8181L238.215 28.658C238.192 28.8068 238.235 28.9582 238.333 29.0725C238.431 29.1869 238.574 29.2526 238.725 29.2523H241.674C242.096 29.2525 242.456 28.9447 242.522 28.527L243.196 24.2548C243.261 23.8374 243.62 23.5297 244.043 23.5295H245.998C250.067 23.5295 252.416 21.5605 253.029 17.6585C253.305 15.9514 253.041 14.6101 252.241 13.6708C251.363 12.6393 249.806 12.0938 247.739 12.0938ZM248.451 17.8789C248.114 20.0954 246.42 20.0954 244.783 20.0954H243.85L244.504 15.9559C244.544 15.7058 244.76 15.5215 245.013 15.5215H245.44C246.556 15.5215 247.608 15.5215 248.152 16.1574C248.476 16.5367 248.575 17.1003 248.451 17.8789ZM263.245 17.8076H266.203C266.354 17.8075 266.496 17.8734 266.594 17.9877C266.691 18.1021 266.734 18.2535 266.71 18.4019L265.111 28.5261C265.046 28.9438 264.686 29.2516 264.263 29.2514H261.599C261.448 29.2512 261.305 29.185 261.208 29.0704C261.11 28.9557 261.067 28.804 261.091 28.6553L261.223 27.8334C261.223 27.8334 259.763 29.5269 257.129 29.5269C255.594 29.5269 254.304 29.0843 253.403 28.0221C252.42 26.8669 252.018 25.2104 252.301 23.478C252.845 20.0051 255.637 17.5294 258.905 17.5294C260.331 17.5294 261.759 17.8401 262.399 18.7695L262.606 19.0694L262.737 18.242C262.776 17.9918 262.992 17.8076 263.245 17.8076ZM262.08 23.5647C261.795 25.2547 260.453 26.3891 258.743 26.3891C257.884 26.3891 257.197 26.1136 256.757 25.5916C256.319 25.0731 256.153 24.3352 256.292 23.5132C256.559 21.8378 257.923 20.6663 259.607 20.6663C260.447 20.6663 261.13 20.9454 261.58 21.4719C262.031 22.0039 262.209 22.7464 262.08 23.5647ZM278.985 17.8076H281.957C282.149 17.8076 282.325 17.9141 282.413 18.0838C282.502 18.2536 282.489 18.4586 282.38 18.6159L272.493 32.8869C272.333 33.1181 272.069 33.2558 271.788 33.2554H268.819C268.627 33.2555 268.45 33.148 268.362 32.9769C268.273 32.8058 268.288 32.5996 268.399 32.4425L271.477 28.0971L268.203 18.4886C268.149 18.3311 268.175 18.1574 268.272 18.0223C268.369 17.8871 268.525 17.8071 268.692 17.8076H271.613C271.992 17.8077 272.327 18.0565 272.437 18.4199L274.174 24.2232L278.274 18.1842C278.434 17.949 278.7 17.808 278.985 17.8076Z" fill="#151515"/>
<path fill-rule="evenodd" clip-rule="evenodd" d="M311.215 28.6589L313.751 12.5291C313.79 12.2791 314.005 12.0946 314.258 12.0938H317.112C317.263 12.094 317.406 12.1601 317.503 12.2745C317.601 12.389 317.643 12.5404 317.62 12.689L315.12 28.5279C315.055 28.9461 314.695 29.2532 314.272 29.2532H311.723C311.572 29.2532 311.43 29.1874 311.332 29.0731C311.234 28.9588 311.192 28.8074 311.215 28.6589ZM291.799 12.0947H285.621C285.199 12.0948 284.84 12.402 284.774 12.819L282.276 28.6589C282.252 28.8074 282.295 28.9588 282.393 29.0731C282.49 29.1874 282.633 29.2532 282.783 29.2532H285.954C286.249 29.2528 286.501 29.0375 286.546 28.7456L287.255 24.2557C287.321 23.8383 287.68 23.5306 288.103 23.5304H290.057C294.127 23.5304 296.475 21.5614 297.089 17.6594C297.366 15.9523 297.1 14.611 296.3 13.6717C295.423 12.6402 293.867 12.0947 291.799 12.0947ZM292.512 17.8798C292.175 20.0963 290.482 20.0963 288.843 20.0963H287.912L288.567 15.9568C288.606 15.7066 288.821 15.5221 289.074 15.5224H289.502C290.616 15.5224 291.669 15.5224 292.213 16.1583C292.537 16.5376 292.636 17.1012 292.512 17.8798ZM307.307 17.8085H310.263C310.414 17.8083 310.557 17.874 310.655 17.9882C310.753 18.1025 310.796 18.2539 310.774 18.4028L309.174 28.527C309.109 28.9444 308.749 29.2521 308.327 29.2523H305.663C305.512 29.2526 305.369 29.1867 305.271 29.072C305.173 28.9572 305.13 28.8052 305.154 28.6562L305.286 27.8343C305.286 27.8343 303.825 29.5278 301.191 29.5278C299.657 29.5278 298.369 29.0852 297.465 28.023C296.483 26.8678 296.083 25.2113 296.364 23.4789C296.908 20.006 299.699 17.5303 302.968 17.5303C304.393 17.5303 305.82 17.841 306.461 18.7704L306.668 19.0703L306.799 18.2429C306.838 17.9925 307.054 17.8078 307.307 17.8085ZM306.14 23.5656C305.856 25.2556 304.513 26.39 302.803 26.39C301.945 26.39 301.257 26.1145 300.816 25.5925C300.379 25.074 300.215 24.3361 300.352 23.5141C300.62 21.8387 301.982 20.6672 303.667 20.6672C304.507 20.6672 305.19 20.9463 305.64 21.4728C306.092 22.0048 306.271 22.7473 306.14 23.5656Z" fill="#151515"/>
<path d="M212.563 32.3296L213.035 29.3291L211.983 29.3047H206.958L210.45 7.16394C210.471 7.02412 210.592 6.92113 210.733 6.92188H219.206C222.018 6.92188 223.959 7.50717 224.973 8.6624C225.448 9.20433 225.751 9.77065 225.897 10.3939C226.05 11.0478 226.053 11.8291 225.903 12.782L225.892 12.8516V13.4621L226.367 13.7313C226.73 13.9151 227.056 14.1636 227.329 14.4647C227.736 14.9281 227.999 15.517 228.11 16.2152C228.224 16.9332 228.187 17.7877 227.999 18.755C227.782 19.8678 227.431 20.837 226.958 21.63C226.541 22.3404 225.979 22.9557 225.31 23.4365C224.681 23.8827 223.934 24.2214 223.09 24.4381C222.271 24.6513 221.338 24.7588 220.315 24.7588H219.656C219.184 24.7588 218.726 24.9286 218.367 25.233C218.008 25.5406 217.77 25.9657 217.695 26.4325L217.645 26.7025L216.81 31.9909L216.772 32.1851C216.763 32.2465 216.745 32.2772 216.72 32.298C216.696 32.318 216.665 32.3292 216.633 32.3296H212.563Z" fill="#253B80"/>
<path d="M226.818 12.9219C226.793 13.0836 226.764 13.2488 226.731 13.4186C225.614 19.155 221.791 21.1367 216.91 21.1367H214.424C213.827 21.1367 213.324 21.5703 213.231 22.1592L211.958 30.2304L211.598 32.5183C211.569 32.7019 211.621 32.8891 211.742 33.0305C211.863 33.1719 212.039 33.2534 212.225 33.2535H216.634C217.156 33.2535 217.6 32.8741 217.682 32.3593L217.725 32.1353L218.555 26.8677L218.608 26.5786C218.69 26.062 219.134 25.6826 219.656 25.6826H220.316C224.587 25.6826 227.931 23.9485 228.908 18.9301C229.316 16.8337 229.105 15.0833 228.025 13.8522C227.682 13.4714 227.273 13.1561 226.818 12.9219V12.9219Z" fill="#636363"/>
<path d="M225.649 12.456C225.292 12.3528 224.929 12.2723 224.562 12.2149C223.837 12.1035 223.105 12.05 222.371 12.055H215.731C215.208 12.0546 214.764 12.435 214.684 12.951L213.271 21.8984L213.23 22.1594C213.321 21.5708 213.828 21.1366 214.424 21.1369H216.909C221.791 21.1369 225.614 19.1544 226.731 13.4189C226.764 13.2491 226.792 13.0838 226.818 12.9221C226.523 12.7675 226.216 12.6379 225.899 12.5346C225.816 12.5071 225.733 12.4809 225.649 12.456Z" fill="#393939"/>
<path d="M214.684 12.9539C214.763 12.4377 215.208 12.0572 215.73 12.0588H222.371C223.158 12.0588 223.892 12.1103 224.562 12.2187C225.016 12.29 225.463 12.3966 225.9 12.5375C226.229 12.6468 226.536 12.776 226.818 12.925C227.151 10.8052 226.816 9.36181 225.669 8.05484C224.406 6.616 222.125 6 219.207 6H210.735C210.139 6 209.63 6.43355 209.538 7.02335L206.009 29.3917C205.976 29.6019 206.036 29.8161 206.174 29.978C206.312 30.1399 206.514 30.2333 206.727 30.2335H211.958L213.271 21.9013L214.684 12.9539Z" fill="#151515"/>
<rect opacity="0.01" x="202" width="120" height="40" fill="white"/>
</svg>
